{
	"accessors" : 
	[
		{
			"bufferView" : 2,
			"byteOffset" : 0,
			"componentType" : 5126,
			"count" : 9960,
			"max" : 
			[
				1,
				1,
				1,
				1
			],
			"min" : 
			[
				0,
				0.006584956776350737,
				0.006584956776350737,
				1
			],
			"name" : "accessor_color_m0-PolyPaper23_-1142282",
			"type" : "VEC4"
		},
		{
			"bufferView" : 2,
			"byteOffset" : 159360,
			"componentType" : 5126,
			"count" : 9448,
			"max" : 
			[
				1,
				1,
				1,
				1
			],
			"min" : 
			[
				5.692175545846112e-05,
				0.006584956776350737,
				0,
				1
			],
			"name" : "accessor_color_m1-PolyPaper21_-1129590",
			"type" : "VEC4"
		},
		{
			"bufferView" : 2,
			"byteOffset" : 310528,
			"componentType" : 5126,
			"count" : 9754,
			"max" : 
			[
				1,
				1,
				1,
				1
			],
			"min" : 
			[
				0,
				0.006584956776350737,
				0.006584956776350737,
				1
			],
			"name" : "accessor_color_m2-PolyPaper11_-1153098",
			"type" : "VEC4"
		},
		{
			"bufferView" : 2,
			"byteOffset" : 466592,
			"componentType" : 5126,
			"count" : 1624,
			"max" : 
			[
				0.6800203323364258,
				0.6800203323364258,
				0.6800203323364258,
				0.2509804
			],
			"min" : 
			[
				0.6800203323364258,
				0.6800203323364258,
				0.6800203323364258,
				0.2509804
			],
			"name" : "accessor_color_m3-PolyGlass24_-1153102",
			"type" : "VEC4"
		},
		{
			"bufferView" : 2,
			"byteOffset" : 492576,
			"componentType" : 5126,
			"count" : 6026,
			"max" : 
			[
				1,
				1,
				1,
				1
			],
			"min" : 
			[
				0.006584956776350737,
				0.006584956776350737,
				0.006584956776350737,
				1
			],
			"name" : "accessor_color_m4-PolyPaper18_-1153698",
			"type" : "VEC4"
		},
		{
			"bufferView" : 2,
			"byteOffset" : 588992,
			"componentType" : 5126,
			"count" : 9942,
			"max" : 
			[
				1,
				1,
				1,
				1
			],
			"min" : 
			[
				0,
				0.006584956776350737,
				0,
				1
			],
			"name" : "accessor_color_m5-PolyPaper16_-1139242",
			"type" : "VEC4"
		},
		{
			"bufferView" : 2,
			"byteOffset" : 748064,
			"componentType" : 5126,
			"count" : 9830,
			"max" : 
			[
				1,
				1,
				1,
				1
			],
			"min" : 
			[
				0.006584956776350737,
				0.006584956776350737,
				0,
				1
			],
			"name" : "accessor_color_m6-PolyPaper23_-1112034",
			"type" : "VEC4"
		},
		{
			"bufferView" : 2,
			"byteOffset" : 905344,
			"componentType" : 5126,
			"count" : 9528,
			"max" : 
			[
				1,
				0.835527777671814,
				0.8277258276939392,
				1
			],
			"min" : 
			[
				0,
				0.006584956776350737,
				0,
				1
			],
			"name" : "accessor_color_m7-PolyPaper15_-1132402",
			"type" : "VEC4"
		},
		{
			"bufferView" : 2,
			"byteOffset" : 1057792,
			"componentType" : 5126,
			"count" : 9812,
			"max" : 
			[
				1,
				1,
				1,
				1
			],
			"min" : 
			[
				0,
				0.006584956776350737,
				0,
				1
			],
			"name" : "accessor_color_m8-PolyPaper16_-1126444",
			"type" : "VEC4"
		},
		{
			"bufferView" : 2,
			"byteOffset" : 1214784,
			"componentType" : 5126,
			"count" : 1076,
			"max" : 
			[
				1,
				1,
				1,
				1
			],
			"min" : 
			[
				1,
				1,
				1,
				1
			],
			"name" : "accessor_color_m9-PolyGem25_-1153100",
			"type" : "VEC4"
		},
		{
			"bufferView" : 0,
			"byteOffset" : 0,
			"componentType" : 5123,
			"count" : 14544,
			"max" : 
			[
				9959
			],
			"min" : 
			[
				0
			],
			"name" : "accessor_indices_0_m0-PolyPaper23_-1142282",
			"type" : "SCALAR"
		},
		{
			"bufferView" : 0,
			"byteOffset" : 29088,
			"componentType" : 5123,
			"count" : 14250,
			"max" : 
			[
				9447
			],
			"min" : 
			[
				0
			],
			"name" : "accessor_indices_0_m1-PolyPaper21_-1129590",
			"type" : "SCALAR"
		},
		{
			"bufferView" : 0,
			"byteOffset" : 57588,
			"componentType" : 5123,
			"count" : 14484,
			"max" : 
			[
				9753
			],
			"min" : 
			[
				0
			],
			"name" : "accessor_indices_0_m2-PolyPaper11_-1153098",
			"type" : "SCALAR"
		},
		{
			"bufferView" : 0,
			"byteOffset" : 86556,
			"componentType" : 5123,
			"count" : 2250,
			"max" : 
			[
				1623
			],
			"min" : 
			[
				0
			],
			"name" : "accessor_indices_0_m3-PolyGlass24_-1153102",
			"type" : "SCALAR"
		},
		{
			"bufferView" : 0,
			"byteOffset" : 91056,
			"componentType" : 5123,
			"count" : 8832,
			"max" : 
			[
				6025
			],
			"min" : 
			[
				0
			],
			"name" : "accessor_indices_0_m4-PolyPaper18_-1153698",
			"type" : "SCALAR"
		},
		{
			"bufferView" : 0,
			"byteOffset" : 108720,
			"componentType" : 5123,
			"count" : 15186,
			"max" : 
			[
				9941
			],
			"min" : 
			[
				0
			],
			"name" : "accessor_indices_0_m5-PolyPaper16_-1139242",
			"type" : "SCALAR"
		},
		{
			"bufferView" : 0,
			"byteOffset" : 139092,
			"componentType" : 5123,
			"count" : 14544,
			"max" : 
			[
				9829
			],
			"min" : 
			[
				0
			],
			"name" : "accessor_indices_0_m6-PolyPaper23_-1112034",
			"type" : "SCALAR"
		},
		{
			"bufferView" : 0,
			"byteOffset" : 168180,
			"componentType" : 5123,
			"count" : 14190,
			"max" : 
			[
				9527
			],
			"min" : 
			[
				0
			],
			"name" : "accessor_indices_0_m7-PolyPaper15_-1132402",
			"type" : "SCALAR"
		},
		{
			"bufferView" : 0,
			"byteOffset" : 196560,
			"componentType" : 5123,
			"count" : 14910,
			"max" : 
			[
				9811
			],
			"min" : 
			[
				0
			],
			"name" : "accessor_indices_0_m8-PolyPaper16_-1126444",
			"type" : "SCALAR"
		},
		{
			"bufferView" : 0,
			"byteOffset" : 226380,
			"componentType" : 5123,
			"count" : 1536,
			"max" : 
			[
				1075
			],
			"min" : 
			[
				0
			],
			"name" : "accessor_indices_0_m9-PolyGem25_-1153100",
			"type" : "SCALAR"
		},
		{
			"bufferView" : 1,
			"byteOffset" : 119520,
			"componentType" : 5126,
			"count" : 9960,
			"max" : 
			[
				1,
				1,
				1
			],
			"min" : 
			[
				-1,
				-1,
				-1
			],
			"name" : "accessor_normal_m0-PolyPaper23_-1142282",
			"type" : "VEC3"
		},
		{
			"bufferView" : 1,
			"byteOffset" : 352416,
			"componentType" : 5126,
			"count" : 9448,
			"max" : 
			[
				1,
				1,
				1
			],
			"min" : 
			[
				-1,
				-1,
				-1
			],
			"name" : "accessor_normal_m1-PolyPaper21_-1129590",
			"type" : "VEC3"
		},
		{
			"bufferView" : 1,
			"byteOffset" : 582840,
			"componentType" : 5126,
			"count" : 9754,
			"max" : 
			[
				1,
				1,
				1
			],
			"min" : 
			[
				-1,
				-1,
				-1
			],
			"name" : "accessor_normal_m2-PolyPaper11_-1153098",
			"type" : "VEC3"
		},
		{
			"bufferView" : 1,
			"byteOffset" : 719376,
			"componentType" : 5126,
			"count" : 1624,
			"max" : 
			[
				1,
				1,
				1
			],
			"min" : 
			[
				-1,
				-1,
				-1
			],
			"name" : "accessor_normal_m3-PolyGlass24_-1153102",
			"type" : "VEC3"
		},
		{
			"bufferView" : 1,
			"byteOffset" : 811176,
			"componentType" : 5126,
			"count" : 6026,
			"max" : 
			[
				1,
				1,
				1
			],
			"min" : 
			[
				-1,
				-1,
				-1
			],
			"name" : "accessor_normal_m4-PolyPaper18_-1153698",
			"type" : "VEC3"
		},
		{
			"bufferView" : 1,
			"byteOffset" : 1002792,
			"componentType" : 5126,
			"count" : 9942,
			"max" : 
			[
				1,
				1,
				1
			],
			"min" : 
			[
				-1,
				-1,
				-1
			],
			"name" : "accessor_normal_m5-PolyPaper16_-1139242",
			"type" : "VEC3"
		},
		{
			"bufferView" : 1,
			"byteOffset" : 1240056,
			"componentType" : 5126,
			"count" : 9830,
			"max" : 
			[
				1,
				1,
				1
			],
			"min" : 
			[
				-1,
				-1,
				-1
			],
			"name" : "accessor_normal_m6-PolyPaper23_-1112034",
			"type" : "VEC3"
		},
		{
			"bufferView" : 1,
			"byteOffset" : 1472352,
			"componentType" : 5126,
			"count" : 9528,
			"max" : 
			[
				1,
				1,
				1
			],
			"min" : 
			[
				-1,
				-1,
				-1
			],
			"name" : "accessor_normal_m7-PolyPaper15_-1132402",
			"type" : "VEC3"
		},
		{
			"bufferView" : 1,
			"byteOffset" : 1704432,
			"componentType" : 5126,
			"count" : 9812,
			"max" : 
			[
				1,
				1,
				1
			],
			"min" : 
			[
				-1,
				-1,
				-1
			],
			"name" : "accessor_normal_m8-PolyPaper16_-1126444",
			"type" : "VEC3"
		},
		{
			"bufferView" : 1,
			"byteOffset" : 1835088,
			"componentType" : 5126,
			"count" : 1076,
			"max" : 
			[
				1,
				1,
				1
			],
			"min" : 
			[
				-1,
				-1,
				-1
			],
			"name" : "accessor_normal_m9-PolyGem25_-1153100",
			"type" : "VEC3"
		},
		{
			"bufferView" : 1,
			"byteOffset" : 0,
			"componentType" : 5126,
			"count" : 9960,
			"max" : 
			[
				4.867332,
				-2.448926,
				1.849435
			],
			"min" : 
			[
				-1.759989,
				-4.998184,
				-0.4202547
			],
			"name" : "accessor_position_m0-PolyPaper23_-1142282",
			"type" : "VEC3"
		},
		{
			"bufferView" : 1,
			"byteOffset" : 239040,
			"componentType" : 5126,
			"count" : 9448,
			"max" : 
			[
				3.34931,
				-2.449993,
				2.298053
			],
			"min" : 
			[
				-2.030144,
				-4.995934,
				-0.9181268
			],
			"name" : "accessor_position_m1-PolyPaper21_-1129590",
			"type" : "VEC3"
		},
		{
			"bufferView" : 1,
			"byteOffset" : 465792,
			"componentType" : 5126,
			"count" : 9754,
			"max" : 
			[
				3.604101,
				-2.464383,
				2.297697
			],
			"min" : 
			[
				-2.045043,
				-4.746981,
				-0.359989
			],
			"name" : "accessor_position_m2-PolyPaper11_-1153098",
			"type" : "VEC3"
		},
		{
			"bufferView" : 1,
			"byteOffset" : 699888,
			"componentType" : 5126,
			"count" : 1624,
			"max" : 
			[
				3.071972,
				-2.947364,
				1.719969
			],
			"min" : 
			[
				-2.039813,
				-4.163832,
				-0.3499825
			],
			"name" : "accessor_position_m3-PolyGlass24_-1153102",
			"type" : "VEC3"
		},
		{
			"bufferView" : 1,
			"byteOffset" : 738864,
			"componentType" : 5126,
			"count" : 6026,
			"max" : 
			[
				3.369987,
				-2.690029,
				2.29813
			],
			"min" : 
			[
				-2.070037,
				-4.999232,
				-0.8900197
			],
			"name" : "accessor_position_m4-PolyPaper18_-1153698",
			"type" : "VEC3"
		},
		{
			"bufferView" : 1,
			"byteOffset" : 883488,
			"componentType" : 5126,
			"count" : 9942,
			"max" : 
			[
				4.344343,
				-2.659918,
				1.400003
			],
			"min" : 
			[
				-2.070032,
				-4.809965,
				-0.9202465
			],
			"name" : "accessor_position_m5-PolyPaper16_-1139242",
			"type" : "VEC3"
		},
		{
			"bufferView" : 1,
			"byteOffset" : 1122096,
			"componentType" : 5126,
			"count" : 9830,
			"max" : 
			[
				3.703387,
				-2.500148,
				2.339438
			],
			"min" : 
			[
				-2.075778,
				-4.999311,
				-0.469491
			],
			"name" : "accessor_position_m6-PolyPaper23_-1112034",
			"type" : "VEC3"
		},
		{
			"bufferView" : 1,
			"byteOffset" : 1358016,
			"componentType" : 5126,
			"count" : 9528,
			"max" : 
			[
				3.150102,
				-2.550018,
				2.065009
			],
			"min" : 
			[
				-1.982735,
				-4.999182,
				-0.9594496
			],
			"name" : "accessor_position_m7-PolyPaper15_-1132402",
			"type" : "VEC3"
		},
		{
			"bufferView" : 1,
			"byteOffset" : 1586688,
			"componentType" : 5126,
			"count" : 9812,
			"max" : 
			[
				3.000253,
				-2.189995,
				2.300205
			],
			"min" : 
			[
				-2.075037,
				-4.997023,
				-0.4594751
			],
			"name" : "accessor_position_m8-PolyPaper16_-1126444",
			"type" : "VEC3"
		},
		{
			"bufferView" : 1,
			"byteOffset" : 1822176,
			"componentType" : 5126,
			"count" : 1076,
			"max" : 
			[
				4.354039,
				-2.961081,
				1.851611
			],
			"min" : 
			[
				-2.014234,
				-4.155947,
				-0.4862629
			],
			"name" : "accessor_position_m9-PolyGem25_-1153100",
			"type" : "VEC3"
		}
	],
	"asset" : 
	{
		"copyright" : "Unknown",
		"generator" : "glTF 1-to-2 Upgrader for Google Blocks",
		"version" : "2.0"
	},
	"bufferViews" : 
	[
		{
			"buffer" : 0,
			"byteLength" : 229452,
			"byteOffset" : 0,
			"name" : "ushortBufferView",
			"target" : 34963
		},
		{
			"buffer" : 0,
			"byteLength" : 1848000,
			"byteOffset" : 229452,
			"byteStride" : 12,
			"name" : "vec3BufferView",
			"target" : 34962
		},
		{
			"buffer" : 0,
			"byteLength" : 1232000,
			"byteOffset" : 2077452,
			"byteStride" : 16,
			"name" : "vec4BufferView",
			"target" : 34962
		}
	],
	"buffers" : 
	[
		{
			"byteLength" : 3309452,
			"name" : "model",
			"uri" : "model.bin"
		}
	],
	"materials" : 
	[
		{
			"alphaMode" : "OPAQUE",
			"doubleSided" : false,
			"name" : "BlocksPaper",
			"pbrMetallicRoughness" : 
			{
				"baseColorFactor" : 
				[
					1,
					1,
					1,
					1
				],
				"metallicFactor" : 0,
				"roughnessFactor" : 0.6
			}
		},
		{
			"alphaMode" : "BLEND",
			"doubleSided" : false,
			"name" : "BlocksGlass",
			"pbrMetallicRoughness" : 
			{
				"baseColorFactor" : 
				[
					0.2,
					0.2,
					1,
					0.3
				],
				"metallicFactor" : 1,
				"roughnessFactor" : 0.4
			}
		},
		{
			"alphaMode" : "OPAQUE",
			"doubleSided" : true,
			"name" : "BlocksGem",
			"pbrMetallicRoughness" : 
			{
				"baseColorFactor" : 
				[
					1,
					0.4,
					1,
					1
				],
				"metallicFactor" : 0,
				"roughnessFactor" : 0.1
			}
		}
	],
	"meshes" : 
	[
		{
			"name" : "mesh_m0-PolyPaper23_-1142282",
			"primitives" : 
			[
				{
					"attributes" : 
					{
						"COLOR_0" : 0,
						"NORMAL" : 20,
						"POSITION" : 30
					},
					"indices" : 10,
					"material" : 0,
					"mode" : 4
				}
			]
		},
		{
			"name" : "mesh_m1-PolyPaper21_-1129590",
			"primitives" : 
			[
				{
					"attributes" : 
					{
						"COLOR_0" : 1,
						"NORMAL" : 21,
						"POSITION" : 31
					},
					"indices" : 11,
					"material" : 0,
					"mode" : 4
				}
			]
		},
		{
			"name" : "mesh_m2-PolyPaper11_-1153098",
			"primitives" : 
			[
				{
					"attributes" : 
					{
						"COLOR_0" : 2,
						"NORMAL" : 22,
						"POSITION" : 32
					},
					"indices" : 12,
					"material" : 0,
					"mode" : 4
				}
			]
		},
		{
			"name" : "mesh_m3-PolyGlass24_-1153102",
			"primitives" : 
			[
				{
					"attributes" : 
					{
						"COLOR_0" : 3,
						"NORMAL" : 23,
						"POSITION" : 33
					},
					"indices" : 13,
					"material" : 1,
					"mode" : 4
				}
			]
		},
		{
			"name" : "mesh_m4-PolyPaper18_-1153698",
			"primitives" : 
			[
				{
					"attributes" : 
					{
						"COLOR_0" : 4,
						"NORMAL" : 24,
						"POSITION" : 34
					},
					"indices" : 14,
					"material" : 0,
					"mode" : 4
				}
			]
		},
		{
			"name" : "mesh_m5-PolyPaper16_-1139242",
			"primitives" : 
			[
				{
					"attributes" : 
					{
						"COLOR_0" : 5,
						"NORMAL" : 25,
						"POSITION" : 35
					},
					"indices" : 15,
					"material" : 0,
					"mode" : 4
				}
			]
		},
		{
			"name" : "mesh_m6-PolyPaper23_-1112034",
			"primitives" : 
			[
				{
					"attributes" : 
					{
						"COLOR_0" : 6,
						"NORMAL" : 26,
						"POSITION" : 36
					},
					"indices" : 16,
					"material" : 0,
					"mode" : 4
				}
			]
		},
		{
			"name" : "mesh_m7-PolyPaper15_-1132402",
			"primitives" : 
			[
				{
					"attributes" : 
					{
						"COLOR_0" : 7,
						"NORMAL" : 27,
						"POSITION" : 37
					},
					"indices" : 17,
					"material" : 0,
					"mode" : 4
				}
			]
		},
		{
			"name" : "mesh_m8-PolyPaper16_-1126444",
			"primitives" : 
			[
				{
					"attributes" : 
					{
						"COLOR_0" : 8,
						"NORMAL" : 28,
						"POSITION" : 38
					},
					"indices" : 18,
					"material" : 0,
					"mode" : 4
				}
			]
		},
		{
			"name" : "mesh_m9-PolyGem25_-1153100",
			"primitives" : 
			[
				{
					"attributes" : 
					{
						"COLOR_0" : 9,
						"NORMAL" : 29,
						"POSITION" : 39
					},
					"indices" : 19,
					"material" : 2,
					"mode" : 4
				}
			]
		}
	],
	"nodes" : 
	[
		{
			"matrix" : 
			[
				1,
				0,
				0,
				0,
				0,
				1,
				0,
				0,
				0,
				0,
				1,
				0,
				0,
				0,
				0,
				1
			],
			"mesh" : 5,
			"name" : "node_MeshObject-134474752-PolyPaper16"
		},
		{
			"matrix" : 
			[
				1,
				0,
				0,
				0,
				0,
				1,
				0,
				0,
				0,
				0,
				1,
				0,
				0,
				0,
				0,
				1
			],
			"mesh" : 3,
			"name" : "node_MeshObject-1424535104-PolyGlass24"
		},
		{
			"matrix" : 
			[
				1,
				0,
				0,
				0,
				0,
				1,
				0,
				0,
				0,
				0,
				1,
				0,
				0,
				0,
				0,
				1
			],
			"mesh" : 9,
			"name" : "node_MeshObject-1943255168-PolyGem25"
		},
		{
			"matrix" : 
			[
				1,
				0,
				0,
				0,
				0,
				1,
				0,
				0,
				0,
				0,
				1,
				0,
				0,
				0,
				0,
				1
			],
			"mesh" : 1,
			"name" : "node_MeshObject108068800-PolyPaper21"
		},
		{
			"matrix" : 
			[
				1,
				0,
				0,
				0,
				0,
				1,
				0,
				0,
				0,
				0,
				1,
				0,
				0,
				0,
				0,
				1
			],
			"mesh" : 7,
			"name" : "node_MeshObject1546055680-PolyPaper15"
		},
		{
			"matrix" : 
			[
				1,
				0,
				0,
				0,
				0,
				1,
				0,
				0,
				0,
				0,
				1,
				0,
				0,
				0,
				0,
				1
			],
			"mesh" : 0,
			"name" : "node_MeshObject157257472-PolyPaper23"
		},
		{
			"matrix" : 
			[
				1,
				0,
				0,
				0,
				0,
				1,
				0,
				0,
				0,
				0,
				1,
				0,
				0,
				0,
				0,
				1
			],
			"mesh" : 4,
			"name" : "node_MeshObject1603230592-PolyPaper18"
		},
		{
			"matrix" : 
			[
				1,
				0,
				0,
				0,
				0,
				1,
				0,
				0,
				0,
				0,
				1,
				0,
				0,
				0,
				0,
				1
			],
			"mesh" : 6,
			"name" : "node_MeshObject1824301952-PolyPaper23"
		},
		{
			"matrix" : 
			[
				1,
				0,
				0,
				0,
				0,
				1,
				0,
				0,
				0,
				0,
				1,
				0,
				0,
				0,
				0,
				1
			],
			"mesh" : 2,
			"name" : "node_MeshObject1832992064-PolyPaper11"
		},
		{
			"matrix" : 
			[
				1,
				0,
				0,
				0,
				0,
				1,
				0,
				0,
				0,
				0,
				1,
				0,
				0,
				0,
				0,
				1
			],
			"mesh" : 8,
			"name" : "node_MeshObject321106560-PolyPaper16"
		}
	],
	"scene" : 0,
	"scenes" : 
	[
		{
			"extras" : {},
			"name" : "defaultScene",
			"nodes" : 
			[
				5,
				3,
				8,
				1,
				6,
				0,
				7,
				4,
				9,
				2
			]
		}
	]
}